<?xml version="1.0" encoding="utf-8"?>
<svg viewBox="0 0 500 500" xmlns="http://www.w3.org/2000/svg">
  <defs>
    <radialGradient gradientUnits="userSpaceOnUse" cx="262.083" cy="273.63" r="221.268" id="gradient-0">
      <stop offset="0" style="stop-color: rgb(67.059% 0% 0.3922%)"/>
      <stop offset="1" style="stop-color: rgb(43.822% 0% 0%)"/>
    </radialGradient>
  </defs>
  <g transform="matrix(1, 0, 0, 1, -6.98174, 0.537057)">
    <ellipse style="paint-order: stroke; stroke: rgba(244, 250, 255, 0); fill-opacity: 0.89; fill: url('#gradient-0');" cx="262.083" cy="273.63" rx="221.268" ry="204.887"/>
    <path d="M 225.229 266.504 L 226.118 269.044 L 223.959 269.044 L 224.213 269.679 Q 224.213 269.806 224.277 269.996 Q 224.34 270.187 224.34 270.314 L 223.578 270.314 L 223.578 270.568 Q 223.578 272.092 222.435 272.854 L 222.562 272.854 Q 221.927 273.362 220.911 273.362 L 197.416 273.362 Q 196.527 273.362 195.956 273.171 Q 195.384 272.981 194.749 272.854 Q 193.733 272.346 193.225 271.647 Q 192.717 270.949 192.463 270.314 L 193.098 270.314 L 193.098 270.187 L 192.844 269.679 L 192.59 269.044 L 194.749 269.044 L 193.86 266.504 L 191.447 266.504 L 191.066 265.234 L 196.273 265.234 L 195.384 262.694 L 193.86 262.694 L 193.479 261.805 L 166.174 261.805 L 165.92 262.694 L 164.396 262.694 L 163.507 265.234 L 162.11 265.234 L 161.602 266.504 L 160.84 266.504 L 159.951 269.044 L 160.078 269.044 L 159.824 269.679 L 159.697 270.187 L 159.57 270.314 L 158.935 270.314 Q 158.681 270.949 158.173 271.647 Q 157.665 272.346 156.649 272.854 L 160.459 272.854 Q 159.951 272.981 159.316 273.171 Q 158.681 273.362 157.792 273.362 L 134.297 273.362 Q 133.281 273.362 132.773 272.854 L 128.963 272.854 Q 127.693 271.965 127.693 270.568 L 127.693 270.314 L 128.455 270.314 Q 128.455 269.933 128.582 269.679 L 128.709 269.044 L 128.582 269.044 L 129.471 266.504 L 130.233 266.504 L 130.741 265.234 L 132.138 265.234 L 133.027 262.694 L 134.424 262.694 L 135.313 260.154 L 130.36 260.154 L 130.868 258.884 L 130.487 258.884 L 131.122 256.979 L 132.392 256.979 L 132.646 256.344 L 129.852 256.344 L 130.741 253.804 L 135.059 253.804 L 135.44 252.534 L 131.503 252.534 L 131.757 251.899 L 132.392 251.899 L 133.281 249.359 L 132.9 249.359 L 133.535 247.454 L 134.043 247.454 L 134.932 244.914 L 136.583 244.914 L 137.218 243.009 L 137.472 242.374 L 143.822 242.374 L 144.076 241.739 L 143.695 241.739 L 144.33 239.834 L 137.218 239.834 L 138.107 237.294 L 140.393 237.294 L 140.647 236.659 L 139.25 236.659 L 139.504 236.024 L 143.568 236.024 L 144.457 233.484 L 139.504 233.484 L 140.012 232.214 L 141.917 232.214 L 142.806 229.674 L 141.663 229.674 L 142.298 227.769 L 143.695 227.769 L 144.584 225.229 L 144.203 225.229 L 144.457 224.594 L 141.536 224.594 L 142.044 223.324 L 144.838 223.324 L 145.473 221.419 L 144.203 221.419 L 144.33 220.784 L 146.616 220.784 L 147.505 218.244 L 144.711 218.244 L 145.346 216.339 L 143.949 216.339 L 144.33 215.069 L 135.567 215.069 L 135.948 213.799 L 134.297 213.799 L 135.186 211.259 L 133.535 211.259 L 134.297 209.354 L 139.25 209.354 L 140.139 206.814 L 152.839 206.814 L 153.474 204.909 L 147.378 204.909 L 147.886 203.639 L 152.585 203.639 L 153.474 201.099 L 149.283 201.099 L 149.918 199.194 L 152.585 199.194 L 153.474 196.654 L 153.093 196.654 L 153.982 194.114 L 150.426 194.114 L 150.553 193.479 L 162.745 193.479 L 163.634 190.939 L 163.253 190.939 L 163.507 190.304 L 159.062 190.304 L 159.57 188.653 L 159.951 187.764 L 161.221 187.764 L 161.983 186.494 L 161.602 186.494 Q 162.237 185.605 163.38 185.033 Q 164.523 184.462 166.174 184.462 L 193.733 184.462 Q 195.384 184.462 196.527 185.033 Q 197.67 185.605 198.305 186.494 L 198.813 186.494 L 199.575 187.764 L 198.305 187.764 Q 198.559 188.272 198.559 188.653 L 199.194 190.304 L 203.639 190.304 L 203.766 190.939 L 204.147 190.939 L 205.036 193.479 L 192.971 193.479 L 193.225 194.114 L 196.781 194.114 L 197.67 196.654 L 198.051 196.654 L 198.94 199.194 L 196.273 199.194 L 196.908 201.099 L 201.099 201.099 L 201.988 203.639 L 197.289 203.639 L 197.797 204.909 L 203.893 204.909 L 204.528 206.814 L 191.828 206.814 L 192.717 209.354 L 187.764 209.354 L 188.399 211.259 L 189.923 211.259 L 190.812 213.799 L 185.859 213.799 L 186.367 215.069 L 206.56 215.069 L 206.941 216.339 L 205.925 216.339 L 206.56 218.244 L 204.02 218.244 L 204.909 220.784 L 201.861 220.784 L 201.988 221.419 L 206.56 221.419 L 207.195 223.324 L 207.322 223.324 L 207.83 224.594 L 203.639 224.594 L 203.893 225.229 L 207.957 225.229 L 208.846 227.769 L 210.243 227.769 L 210.878 229.674 L 210.497 229.674 L 211.386 232.214 L 213.418 232.214 L 213.926 233.484 L 210.243 233.484 L 211.132 236.024 L 213.672 236.024 L 213.799 236.659 L 213.164 236.659 L 213.418 237.294 L 211.132 237.294 L 211.894 239.834 L 219.133 239.834 L 219.768 241.739 L 220.149 241.739 L 220.403 242.374 L 213.926 242.374 L 214.18 243.009 L 214.307 243.009 L 214.942 244.914 L 213.291 244.914 L 214.18 247.454 L 213.545 247.454 L 214.307 249.359 L 214.688 249.359 L 215.577 251.899 L 214.942 251.899 L 215.196 252.534 L 219.133 252.534 L 219.641 253.804 L 215.196 253.804 L 216.085 256.344 L 218.879 256.344 L 219.133 256.979 L 217.863 256.979 L 218.625 258.884 L 218.879 258.884 L 219.387 260.154 L 224.34 260.154 L 225.229 262.694 L 226.753 262.694 L 227.642 265.234 L 222.435 265.234 L 222.816 266.504 Z M 172.143 216.339 L 173.667 216.339 L 173.032 218.244 L 178.239 218.244 L 177.604 216.339 L 178.62 216.339 L 178.239 215.069 L 172.524 215.069 Z M 176.334 220.784 L 175.699 218.625 L 175.064 220.784 Z M 168.714 236.024 L 168.46 236.659 L 169.857 236.659 L 169.73 237.04 L 184.081 237.04 L 183.954 236.659 L 184.589 236.659 L 184.462 236.024 L 181.922 236.024 L 181.16 233.484 L 184.843 233.484 L 184.462 232.214 L 182.303 232.214 L 181.541 229.674 L 181.922 229.674 L 181.414 227.769 L 180.017 227.769 L 179.255 225.229 L 175.191 225.229 L 174.937 224.594 L 179.128 224.594 L 178.747 223.324 L 178.62 223.324 L 177.985 221.419 L 173.921 221.419 L 173.413 223.324 L 170.619 223.324 L 170.238 224.594 L 173.032 224.594 L 172.905 225.229 L 173.286 225.229 L 172.524 227.769 L 171.127 227.769 L 170.492 229.674 L 171.635 229.674 L 170.873 232.214 L 168.968 232.214 L 168.587 233.484 L 173.54 233.484 L 172.778 236.024 Z M 313.043 220.784 L 312.662 222.689 L 333.617 222.689 L 333.363 223.959 L 314.059 223.959 L 313.932 224.594 L 321.933 224.594 L 321.552 227.134 L 324.219 227.134 L 323.965 229.039 L 325.489 229.039 L 325.108 230.944 L 325.235 230.944 L 324.981 232.849 L 325.489 232.849 L 325.489 233.484 L 325.235 233.484 L 324.854 236.024 L 324.473 236.024 L 324.092 238.564 L 323.838 241.104 L 326.251 241.104 L 326.124 241.739 L 324.727 241.739 L 324.727 242.374 L 327.267 242.374 L 327.267 243.009 L 323.203 243.009 L 323.076 243.644 L 321.679 243.644 L 321.425 245.549 L 325.616 245.549 L 325.235 248.089 L 330.061 248.089 L 329.807 249.994 L 325.997 249.994 L 325.87 250.629 L 323.965 250.629 L 323.584 253.169 L 324.6 253.169 L 324.473 254.439 L 325.616 254.439 L 325.362 256.344 L 323.457 256.344 L 323.203 258.249 L 319.012 258.249 L 318.885 259.519 L 323.203 259.519 L 322.822 262.059 L 320.028 262.059 L 319.774 264.599 L 322.314 264.599 L 322.06 266.504 L 312.281 266.504 L 312.027 267.774 L 315.71 267.774 L 315.583 268.536 L 315.583 269.044 L 319.012 269.044 Q 318.885 269.298 318.822 269.679 Q 318.758 270.06 318.504 270.314 L 317.107 270.314 Q 316.472 271.457 315.456 272.219 L 316.599 272.219 Q 315.837 272.727 315.456 272.854 L 316.472 272.854 Q 315.456 273.362 313.932 273.362 L 295.771 273.362 Q 295.009 273.362 294.438 273.171 Q 293.866 272.981 293.358 272.854 L 292.342 272.854 Q 291.961 272.727 291.707 272.536 Q 291.453 272.346 291.199 272.219 L 290.183 272.219 Q 289.675 271.711 289.294 271.203 Q 288.913 270.695 288.659 270.314 L 290.056 270.314 Q 289.929 270.187 289.929 269.933 L 289.548 269.044 L 286.119 269.044 L 285.611 267.774 L 281.928 267.774 L 281.42 266.504 L 291.199 266.504 L 290.437 264.599 L 287.77 264.599 L 286.754 262.059 L 289.548 262.059 L 288.532 259.519 L 284.214 259.519 L 283.706 258.249 L 287.77 258.249 L 287.008 256.344 L 288.913 256.344 L 288.151 254.439 L 287.008 254.439 L 286.5 253.169 L 285.484 253.169 L 284.468 250.629 L 286.373 250.629 L 286.119 249.994 L 289.929 249.994 L 289.167 248.089 L 284.341 248.089 L 283.325 245.549 L 279.134 245.549 L 278.499 243.898 L 277.864 245.549 L 277.356 245.549 L 276.34 248.089 L 284.214 248.089 L 283.452 249.994 L 277.229 249.994 L 276.975 250.629 L 278.118 250.629 L 277.102 253.169 L 279.388 253.169 L 278.88 254.439 L 272.53 254.439 L 271.768 256.344 L 275.197 256.344 L 274.435 258.249 L 270.244 258.249 L 269.736 259.519 L 271.768 259.519 L 270.752 262.059 L 270.879 262.059 L 269.863 264.599 L 261.481 264.599 L 260.719 266.504 L 274.054 266.504 L 273.546 267.774 L 270.752 267.774 L 270.244 269.044 L 269.99 269.044 L 269.609 269.933 L 269.355 270.314 L 265.418 270.314 Q 265.164 270.695 264.847 271.203 Q 264.529 271.711 263.894 272.219 L 264.656 272.219 Q 264.275 272.6 263.64 272.854 L 267.069 272.854 Q 266.561 272.981 265.926 273.171 Q 265.291 273.362 264.529 273.362 L 246.368 273.362 Q 244.844 273.362 243.828 272.854 L 240.526 272.854 Q 240.145 272.727 239.383 272.219 L 238.494 272.219 Q 237.351 271.33 236.843 270.314 L 240.907 270.314 Q 240.78 270.06 240.653 269.679 Q 240.526 269.298 240.399 269.044 L 240.78 269.044 L 240.653 268.536 L 240.526 267.774 L 243.32 267.774 L 243.066 266.504 L 229.858 266.504 L 229.604 264.599 L 237.859 264.599 L 237.605 262.059 L 237.478 262.059 L 237.097 259.519 L 235.065 259.519 L 234.938 258.249 L 239.002 258.249 L 238.748 256.344 L 235.446 256.344 L 235.192 254.439 L 241.542 254.439 L 241.288 253.169 L 239.002 253.169 L 238.621 250.629 L 237.478 250.629 L 237.351 249.994 L 243.574 249.994 L 243.32 248.089 L 235.446 248.089 L 235.065 245.549 L 235.573 245.549 L 235.192 243.644 L 236.589 243.644 L 236.589 243.009 L 240.653 243.009 L 240.526 242.374 L 237.859 242.374 L 237.732 241.739 L 239.129 241.739 L 239.129 241.104 L 236.589 241.104 L 236.462 239.834 L 236.335 239.834 L 236.208 238.564 L 235.827 236.024 L 236.208 236.024 L 235.827 233.484 L 236.081 233.484 L 235.954 232.849 L 235.446 232.849 L 235.192 230.944 L 235.065 230.944 L 234.811 229.039 L 233.287 229.039 L 233.033 227.134 L 230.366 227.134 L 229.985 224.594 L 221.984 224.594 L 221.984 223.959 L 241.288 223.959 L 241.161 222.689 L 233.541 222.689 L 233.287 220.784 L 225.286 220.784 L 225.159 219.514 L 236.716 219.514 L 236.335 216.974 L 233.287 216.974 L 233.287 216.339 L 235.065 216.339 L 234.938 215.704 L 237.605 215.704 L 237.351 213.799 L 233.033 213.799 L 232.906 213.164 L 223 213.164 L 222.746 210.624 L 233.795 210.624 L 233.414 208.084 L 230.62 208.084 L 230.493 206.814 L 231.636 206.814 L 231.382 204.909 L 231.763 204.909 L 231.636 204.274 L 227.699 204.274 L 227.572 203.004 L 230.239 203.004 L 229.985 201.099 L 230.239 201.099 L 229.985 199.194 L 232.144 199.194 L 231.89 197.924 L 225.032 197.924 L 224.905 196.654 L 230.366 196.654 L 230.239 195.384 L 227.064 195.384 L 226.937 194.114 L 230.874 194.114 L 230.62 192.209 L 229.35 192.209 L 228.969 189.669 L 230.366 189.669 L 230.239 189.034 L 229.985 187.637 L 229.985 187.129 L 228.08 187.129 Q 228.334 184.462 230.874 184.462 L 254.496 184.462 Q 258.433 184.462 258.941 187.129 L 260.846 187.129 Q 260.973 187.383 260.973 187.891 L 261.1 189.034 L 261.227 189.669 L 259.957 189.669 L 260.211 192.209 L 261.481 192.209 L 261.735 194.114 L 257.671 194.114 L 257.925 195.384 L 260.973 195.384 L 261.1 196.654 L 255.639 196.654 L 255.766 197.924 L 262.624 197.924 L 262.878 199.194 L 260.719 199.194 L 260.846 201.099 L 260.719 201.099 L 260.846 203.004 L 258.052 203.004 L 258.306 204.274 L 262.116 204.274 L 262.243 204.909 L 261.862 204.909 L 262.116 206.814 L 260.973 206.814 L 261.1 208.084 L 263.894 208.084 L 264.275 210.624 L 253.099 210.624 L 253.353 213.164 L 263.259 213.164 L 263.386 213.799 L 267.704 213.799 L 267.958 215.704 L 265.291 215.704 L 265.291 216.339 L 263.513 216.339 L 263.64 216.974 L 266.307 216.974 L 266.561 216.339 L 267.831 216.339 L 268.085 215.704 L 273.419 215.704 L 274.054 213.799 L 268.212 213.799 L 268.339 213.164 L 278.118 213.164 L 279.007 210.624 L 268.72 210.624 L 269.482 208.084 L 268.339 208.084 L 268.339 207.83 L 268.72 206.814 L 271.133 206.814 Q 271.387 206.306 271.705 205.798 Q 272.022 205.29 272.53 204.909 L 271.768 204.909 Q 272.403 204.401 273.165 204.274 L 274.308 204.274 Q 274.689 204.147 275.451 204.147 L 288.405 204.147 Q 289.167 204.147 289.421 204.274 L 288.278 204.274 Q 288.786 204.401 289.104 204.528 Q 289.421 204.655 289.675 204.909 L 290.437 204.909 Q 291.072 205.29 291.39 205.798 Q 291.707 206.306 291.834 206.814 L 289.548 206.814 Q 289.929 207.322 289.929 207.83 L 290.056 208.084 L 291.326 208.084 L 292.088 210.624 L 297.041 210.624 L 297.422 208.084 L 296.66 208.084 L 296.787 206.814 L 302.756 206.814 L 302.883 204.909 L 297.295 204.909 L 297.422 204.274 L 296.406 204.274 L 296.66 203.004 L 298.819 203.004 L 299.073 201.099 L 298.311 201.099 L 298.565 199.194 L 300.343 199.194 L 300.47 197.924 L 292.723 197.924 L 292.85 196.654 L 295.136 196.654 L 295.263 195.384 L 299.581 195.384 L 299.708 194.114 L 299.581 194.114 L 299.835 192.209 L 300.089 189.669 L 297.549 189.669 L 297.676 189.034 L 300.724 189.034 L 300.978 187.891 L 300.978 187.129 L 303.391 187.129 Q 303.899 184.462 307.836 184.462 L 331.458 184.462 Q 332.474 184.462 333.3 185.224 Q 334.125 185.986 334.252 187.129 L 331.966 187.129 L 331.966 187.637 L 331.712 189.034 L 328.537 189.034 L 328.41 189.669 L 331.077 189.669 L 330.696 192.209 L 330.442 194.114 L 330.569 194.114 L 330.315 195.384 L 325.997 195.384 L 325.87 196.654 L 323.584 196.654 L 323.33 197.924 L 331.204 197.924 L 331.077 199.194 L 329.299 199.194 L 329.045 201.099 L 329.68 201.099 L 329.426 203.004 L 327.267 203.004 L 327.013 204.274 L 328.029 204.274 L 327.902 204.909 L 333.49 204.909 L 333.236 206.814 L 327.394 206.814 L 327.14 208.084 L 327.902 208.084 L 327.521 210.624 L 322.949 210.624 L 322.568 213.164 L 328.156 213.164 L 328.029 213.799 L 321.552 213.799 L 321.298 215.704 L 327.267 215.704 L 327.267 216.339 L 326.886 216.339 L 326.759 216.974 L 327.14 216.974 L 326.759 219.514 L 328.791 219.514 L 328.537 220.784 Z M 297.803 213.164 L 293.485 213.164 L 293.612 213.799 L 297.676 213.799 Z M 294.755 215.704 L 295.009 216.339 L 293.739 216.339 L 293.993 216.974 L 294.882 219.514 L 281.166 219.514 L 281.547 220.784 L 298.438 220.784 L 298.565 219.514 L 296.533 219.514 L 296.914 216.974 L 296.533 216.974 L 296.66 216.339 L 296.914 216.339 L 297.041 215.704 Z M 271.641 222.689 L 271.26 222.689 L 271.387 223.705 Z M 303.391 223.578 L 303.518 222.689 L 303.01 222.689 Z" transform="matrix(1.753945, -0.198407, 0.233161, 2.061163, -195.560928, -152.240601)" style="fill: rgba(255, 255, 255, 0.93);"/>
  </g>
</svg>