<?xml version="1.0" encoding="UTF-8" standalone="no"?>
<!DOCTYPE svg PUBLIC "-//W3C//DTD SVG 1.1//EN" "http://www.w3.org/Graphics/SVG/1.1/DTD/svg11.dtd">
<svg width="100%" height="100%" viewBox="0 0 300 300" version="1.1" xmlns="http://www.w3.org/2000/svg" xmlns:xlink="http://www.w3.org/1999/xlink" xml:space="preserve" xmlns:serif="http://www.serif.com/" style="fill-rule:evenodd;clip-rule:evenodd;stroke-linejoin:round;stroke-miterlimit:2;">
    <g transform="matrix(1.3864,0,0,1.3864,-62.1186,-62.0077)">
        <path d="M259.793,152.92L259.793,152.92C259.793,211.505 211.585,259.713 153,259.713C94.415,259.713 46.207,211.505 46.207,152.92C46.207,94.335 94.415,46.127 153,46.127C153.002,46.127 153.004,46.127 153.006,46.127C211.587,46.127 259.793,94.333 259.793,152.914C259.793,152.916 259.793,152.918 259.793,152.92" style="fill:url(#_Linear1);fill-rule:nonzero;"/>
        <path d="M154.799,112.893L182.438,181.102L140.692,148.221L154.799,112.893ZM203.895,196.815L161.385,94.514C160.385,91.762 157.727,89.94 154.799,90.001C151.826,89.933 149.113,91.743 148.034,94.514L101.377,206.726L117.338,206.726L135.806,160.458L190.923,204.988C193.142,206.782 194.739,207.593 196.82,207.593C196.88,207.594 196.939,207.595 196.999,207.595C201.181,207.595 204.623,204.153 204.623,199.97C204.623,199.968 204.623,199.966 204.623,199.964C204.551,198.882 204.305,197.819 203.895,196.815" style="fill:white;fill-rule:nonzero;"/>
    </g>
    <defs>
        <linearGradient id="_Linear1" x1="0" y1="0" x2="1" y2="0" gradientUnits="userSpaceOnUse" gradientTransform="matrix(1,1,-1,1,153,153)"><stop offset="0" style="stop-color:rgb(215,30,0);stop-opacity:1"/><stop offset="1" style="stop-color:rgb(194,25,1);stop-opacity:1"/></linearGradient>
    </defs>
</svg>
